<svg width="224" height="769" viewBox="0 0 224 769" fill="none" xmlns="http://www.w3.org/2000/svg">
<path d="M24.3373 10.3997H18.9742C19.5392 9.7226 19.88 8.85193 19.88 7.90308C19.88 5.75085 18.1292 4 15.9771 4C13.8249 4 12.074 5.75085 12.074 7.90308C12.074 8.85193 12.4148 9.7226 12.9799 10.3997H7.6167L4.28125 28H27.6728L24.3373 10.3997ZM15.9771 5.40625C17.3537 5.40625 18.4738 6.52631 18.4738 7.90308C18.4738 9.27966 17.3537 10.3997 15.9771 10.3997C14.6003 10.3997 13.4803 9.27966 13.4803 7.90308C13.4803 6.52631 14.6003 5.40625 15.9771 5.40625ZM8.78143 11.806H23.1726L25.975 26.5938H5.979L8.78143 11.806Z" fill="black"/>
<path d="M16.0055 16.4026H14.4094L12.1779 18.631V16.4026H11.0309V22.0225H12.1779V20.1017L12.7563 19.5378L14.5044 22.0225H15.985L13.5753 18.7497L16.0055 16.4026Z" fill="black"/>
<path d="M18.2747 20.0007H19.7903V20.617C19.6685 20.7058 19.5026 20.793 19.2955 20.8766C19.0436 20.9786 18.7817 21.0303 18.5177 21.0303C18.2154 21.0303 17.9261 20.9627 17.6575 20.8294C17.3986 20.701 17.2063 20.5092 17.0701 20.2426C16.9294 19.9677 16.8582 19.6152 16.8582 19.195C16.8582 18.8546 16.9186 18.5355 17.0371 18.2474C17.1041 18.0872 17.1995 17.938 17.3207 17.8034C17.4363 17.6752 17.5936 17.569 17.7878 17.4879C17.9858 17.4053 18.2277 17.3634 18.5071 17.3634C18.7347 17.3634 18.9432 17.4028 19.1269 17.4804C19.3016 17.5542 19.4356 17.6511 19.5251 17.7681C19.6222 17.8948 19.7062 18.0775 19.7751 18.3113L19.8395 18.5302L20.8955 18.2405L20.8386 18.0191C20.7417 17.6419 20.5959 17.329 20.4052 17.0886C20.2094 16.8419 19.939 16.6482 19.601 16.5127C19.2736 16.3814 18.9044 16.3149 18.5036 16.3149C17.9539 16.3149 17.4592 16.4307 17.0331 16.6588C16.5969 16.8925 16.2585 17.2534 16.028 17.7314C15.8037 18.1962 15.6902 18.7026 15.6902 19.2373C15.6902 19.7786 15.8052 20.277 16.0324 20.7184C16.2648 21.1703 16.6132 21.5203 17.0684 21.7587C17.5139 21.9921 18.0145 22.1106 18.5563 22.1106C18.9579 22.1106 19.3547 22.0375 19.7357 21.8932C20.1131 21.7506 20.4832 21.5356 20.8356 21.2546L20.9233 21.1848V18.9271L18.2747 18.9313V20.0007Z" fill="black"/>
<path d="M51.25 8.5C48.355 8.5 46 10.855 46 13.75C46 16.444 50.212 21.2155 50.692 21.751C50.8345 21.9085 51.037 22 51.25 22C51.463 22 51.6655 21.9085 51.808 21.751C52.288 21.2155 56.5 16.444 56.5 13.75C56.5 10.855 54.145 8.5 51.25 8.5ZM51.25 20.1055C49.612 18.163 47.5 15.181 47.5 13.75C47.5 11.683 49.183 10 51.25 10C53.317 10 55 11.683 55 13.75C55 15.1795 52.888 18.163 51.25 20.1055Z" fill="black"/>
<path d="M51.25 11.5C50.0095 11.5 49 12.5095 49 13.75C49 14.9905 50.0095 16 51.25 16C52.4905 16 53.5 14.9905 53.5 13.75C53.5 12.5095 52.4905 11.5 51.25 11.5ZM51.25 14.5C50.836 14.5 50.5 14.164 50.5 13.75C50.5 13.336 50.836 13 51.25 13C51.664 13 52 13.336 52 13.75C52 14.164 51.664 14.5 51.25 14.5Z" fill="black"/>
<path d="M69.25 4H63.25C62.836 4 62.5 4.336 62.5 4.75V9.25V12.25C62.5 12.664 62.836 13 63.25 13C63.664 13 64 12.664 64 12.25V10H69.25C69.664 10 70 9.664 70 9.25V4.75C70 4.336 69.664 4 69.25 4ZM68.5 8.5H64V5.5H68.5V8.5Z" fill="black"/>
<path d="M67 20.5H59.5C58.6735 20.5 58 19.8265 58 19C58 18.1735 58.6735 17.5 59.5 17.5H61.138C61.4485 18.3715 62.2735 19 63.25 19C64.4905 19 65.5 17.9905 65.5 16.75C65.5 15.5095 64.4905 14.5 63.25 14.5C62.2735 14.5 61.4485 15.1285 61.138 16H59.5C57.8455 16 56.5 17.3455 56.5 19C56.5 20.6545 57.8455 22 59.5 22H67C67.8265 22 68.5 22.6735 68.5 23.5C68.5 24.3265 67.8265 25 67 25H53.362C53.0515 24.1285 52.2265 23.5 51.25 23.5C50.0095 23.5 49 24.5095 49 25.75C49 26.9905 50.0095 28 51.25 28C52.2265 28 53.0515 27.3715 53.362 26.5H67C68.6545 26.5 70 25.1545 70 23.5C70 21.8455 68.6545 20.5 67 20.5ZM63.25 16C63.664 16 64 16.336 64 16.75C64 17.164 63.664 17.5 63.25 17.5C62.836 17.5 62.5 17.164 62.5 16.75C62.5 16.336 62.836 16 63.25 16ZM51.25 26.5C50.836 26.5 50.5 26.164 50.5 25.75C50.5 25.336 50.836 25 51.25 25C51.664 25 52 25.336 52 25.75C52 26.164 51.664 26.5 51.25 26.5Z" fill="black"/>
<g clip-path="url(#clip0)">
<path d="M106.205 21.5212L101.164 16L106.205 10.4794C106.364 10.3056 106.445 10.0739 106.428 9.83904C106.411 9.60391 106.298 9.38594 106.116 9.23646L99.9874 4.19594C99.7305 3.98458 99.3753 3.94019 99.0746 4.08255C98.7739 4.2243 98.5823 4.52674 98.5823 4.85927V13.1736L95.0639 9.32046C94.7443 8.97021 94.2004 8.94555 93.8502 9.26548C93.4999 9.5854 93.4753 10.1287 93.7952 10.4792L98.5823 15.7217V16.2784L93.7952 21.5212C93.475 21.8712 93.4997 22.4148 93.8502 22.7349C94.2007 23.0551 94.7441 23.0305 95.064 22.6797L98.5821 18.827V27.1408C98.5821 27.473 98.774 27.7758 99.0744 27.9178C99.1913 27.9728 99.3167 28.0001 99.4413 28.0001C99.6369 28.0001 99.8305 27.9336 99.9874 27.8047L106.116 22.7641C106.298 22.6144 106.411 22.3964 106.428 22.1615C106.444 21.9267 106.364 21.695 106.205 21.5212ZM100.301 6.6784L104.326 9.98857L100.301 14.3968V6.6784ZM100.301 25.3217V17.6036L104.326 22.0115L100.301 25.3217Z" fill="black"/>
</g>
<g clip-path="url(#clip1)">
<path d="M152.08 11.2274V9.1261C152.08 8.73627 151.764 8.42022 151.374 8.42022H148.096C147.706 8.42022 147.39 8.73627 147.39 9.1261V11.2274C147.03 11.2596 146.748 11.5617 146.748 11.9301V15.7258C146.748 16.5907 147.451 17.2943 148.316 17.2943H149.029V24.8141C149.029 25.7924 148.233 26.5882 147.255 26.5882H139.538C138.56 26.5882 137.764 25.7924 137.764 24.8141V23.2941H139.265C139.655 23.2941 139.971 22.9781 139.971 22.5882V20.298H140.721C141.889 20.298 142.839 19.348 142.839 18.1804V11.7782C142.839 10.8261 142.207 10.0189 141.341 9.75326V7.33269C141.341 6.94286 141.025 6.62681 140.635 6.62681H139.647V4.70587C139.647 4.31603 139.331 3.99998 138.941 3.99998C138.551 3.99998 138.235 4.31603 138.235 4.70587V6.62681H135.881V4.70587C135.881 4.31603 135.565 3.99998 135.176 3.99998C134.786 3.99998 134.47 4.31603 134.47 4.70587V6.62681H133.482C133.092 6.62681 132.776 6.94286 132.776 7.33269V9.75326C131.91 10.0189 131.278 10.826 131.278 11.7782V18.1804C131.278 19.348 132.228 20.298 133.396 20.298H134.145V22.5882C134.145 22.9781 134.461 23.2941 134.851 23.2941H136.352V24.8141C136.352 26.5708 137.782 28 139.538 28H147.255C149.012 28 150.441 26.5708 150.441 24.8141V17.2943H151.153C152.018 17.2943 152.722 16.5907 152.722 15.7258V11.9301C152.722 11.5618 152.44 11.2597 152.08 11.2274ZM139.929 8.03857V9.66055H134.188V8.03857H139.929ZM132.69 18.1804V11.7782C132.69 11.389 133.006 11.0723 133.396 11.0723H140.721C141.11 11.0723 141.427 11.389 141.427 11.7782V18.1804C141.427 18.5696 141.11 18.8862 140.721 18.8862C140.425 18.8862 133.732 18.8862 133.396 18.8862C133.006 18.8862 132.69 18.5696 132.69 18.1804ZM135.557 20.298H138.56V21.8823H135.557V20.298ZM150.668 9.83198V11.2242H148.802V9.83198H150.668ZM151.31 15.7258C151.31 15.8122 151.24 15.8825 151.153 15.8825C151.067 15.8825 149.115 15.8825 148.316 15.8825C148.23 15.8825 148.16 15.8122 148.16 15.7258V12.636H151.31V15.7258Z" fill="black"/>
<path d="M136.164 15.6852H136.88L136.568 16.409C136.413 16.767 136.578 17.1823 136.936 17.3367C137.295 17.4911 137.71 17.3256 137.864 16.968L138.601 15.2588C138.802 14.7928 138.459 14.2735 137.953 14.2735H137.237L137.549 13.5497C137.703 13.1917 137.538 12.7763 137.18 12.622C136.822 12.4677 136.407 12.6328 136.253 12.9907L135.516 14.6998C135.315 15.1657 135.657 15.6852 136.164 15.6852Z" fill="black"/>
</g>
<path d="M196 5.78125H172V23.2266H186.764V26.2543L189.388 24.9725L192.013 26.2543V23.2266H196V5.78125ZM189.388 20.413C188.07 20.413 186.998 19.3406 186.998 18.0224C186.998 16.7042 188.07 15.6318 189.388 15.6318C190.707 15.6318 191.779 16.7042 191.779 18.0224C191.779 19.3406 190.707 20.413 189.388 20.413ZM189.388 23.4075L188.171 24.0023V21.6177C188.553 21.7477 188.962 21.8193 189.388 21.8193C189.814 21.8193 190.224 21.7477 190.606 21.6177V24.0023L189.388 23.4075ZM194.594 21.8204H192.013V20.7626C192.734 20.071 193.185 19.0987 193.185 18.0224C193.185 15.9288 191.482 14.2255 189.388 14.2255C187.295 14.2255 185.592 15.9288 185.592 18.0224C185.592 19.0987 186.042 20.0712 186.764 20.7626V21.8204H173.406V7.1875H194.594V21.8204Z" fill="black"/>
<path d="M174.814 11.4106H193.186V12.8169H174.814V11.4106Z" fill="black"/>
<path d="M176.925 8.59595H191.075V10.0022H176.925V8.59595Z" fill="black"/>
<path d="M174.814 19.0057H181.654V20.4119H174.814V19.0057Z" fill="black"/>
<path d="M174.814 16.1908H181.654V17.597H174.814V16.1908Z" fill="black"/>
<path d="M46.536 70H40V66H28V70H21.464C19.554 70 18 71.554 18 73.464V122.536C18 124.446 19.554 126 21.464 126H46.536C48.446 126 50 124.446 50 122.536V73.464C50 71.554 48.446 70 46.536 70ZM20 85H48V97H20V85ZM20 99H48V111H20V99ZM30 68H38V70H30V68ZM21.464 72H28H40H46.536C47.344 72 48 72.656 48 73.464V83H20V73.464C20 72.656 20.656 72 21.464 72ZM46.536 124H21.464C20.656 124 20 123.344 20 122.536V113H48V122.536C48 123.344 47.344 124 46.536 124Z" fill="black"/>
<g clip-path="url(#clip2)">
<path d="M114.404 73.413C113.428 72.861 112.273 72.879 111.314 73.457C111.268 73.484 111.224 73.516 111.184 73.55L97.634 85.013H87C86.447 85.013 86 85.46 86 86.013V105.013C86 105.279 86.105 105.533 86.293 105.72C86.481 105.907 86.734 106.013 87 106.013L97.61 106.008L111.153 118.448C111.203 118.494 111.257 118.534 111.314 118.568C111.806 118.865 112.351 119.014 112.896 119.014C113.413 119.013 113.929 118.88 114.404 118.612C115.403 118.048 116 117.018 116 115.857V76.169C116 75.008 115.403 73.978 114.404 73.413ZM114 115.857C114 116.288 113.783 116.667 113.421 116.872C113.266 116.959 112.873 117.127 112.421 116.898L99 104.569V100.013C99 99.46 98.553 99.013 98 99.013C97.447 99.013 97 99.46 97 100.013V104.009L88 104.013V87.013H97V91.013C97 91.566 97.447 92.013 98 92.013C98.553 92.013 99 91.566 99 91.013V86.477L112.405 75.137C112.866 74.895 113.265 75.067 113.421 75.155C113.783 75.36 114 75.739 114 76.169V115.857Z" fill="black"/>
<path d="M124.797 77.066C124.274 76.889 123.706 77.169 123.528 77.692C123.351 78.214 123.631 78.783 124.154 78.961C131.255 81.372 136.026 88.024 136.026 95.514C136.026 102.997 131.264 109.65 124.177 112.068C123.655 112.246 123.375 112.814 123.554 113.338C123.696 113.753 124.084 114.015 124.5 114.015C124.607 114.015 124.716 113.998 124.823 113.961C132.719 111.268 138.025 103.855 138.025 95.515C138.026 87.166 132.71 79.753 124.797 77.066Z" fill="black"/>
<path d="M129.026 95.513C129.026 89.541 125.017 84.211 119.277 82.551C118.744 82.4 118.193 82.703 118.039 83.235C117.886 83.765 118.191 84.32 118.723 84.473C123.612 85.886 127.027 90.426 127.027 95.513C127.027 100.6 123.612 105.14 118.723 106.553C118.192 106.706 117.886 107.261 118.039 107.791C118.166 108.229 118.565 108.514 119 108.514C119.092 108.514 119.185 108.501 119.277 108.475C125.018 106.815 129.026 101.485 129.026 95.513Z" fill="black"/>
</g>
<path d="M191.634 103.989C192.675 103.908 193.624 103.377 194.24 102.53L203.603 89.586C203.89 89.189 203.847 88.641 203.499 88.293C203.151 87.946 202.603 87.903 202.206 88.189L189.26 97.555C188.416 98.169 187.885 99.118 187.804 100.159C187.723 101.2 188.1 102.219 188.837 102.956C189.508 103.628 190.413 104 191.354 104C191.447 104 191.54 103.996 191.634 103.989ZM189.798 100.315C189.833 99.858 190.067 99.441 190.435 99.173L198.332 93.46L192.621 101.355C192.351 101.726 191.934 101.959 191.477 101.995C191.022 102.025 190.575 101.867 190.25 101.542C189.928 101.219 189.762 100.771 189.798 100.315Z" fill="black"/>
<path d="M214.034 85.564C214.024 85.543 214.024 85.521 214.013 85.5C214.001 85.48 213.982 85.469 213.969 85.45C212.958 83.716 211.762 82.103 210.404 80.641L212.552 78.494L213.966 79.908L218.208 75.665L213.966 71.423L209.723 75.665L211.138 77.08L208.99 79.227C207.528 77.869 205.916 76.672 204.181 75.661C204.162 75.648 204.151 75.629 204.131 75.617C204.11 75.605 204.088 75.606 204.067 75.595C200.974 73.813 197.499 72.626 193.794 72.191V71H195.294C196.673 71 197.794 69.879 197.794 68.5C197.794 67.121 196.672 66 195.293 66H186.293C184.914 66 183.793 67.121 183.793 68.5C183.793 69.879 184.914 71 186.293 71H187.793V72.156C186.713 72.271 185.635 72.447 184.569 72.691C184.031 72.814 183.694 73.351 183.818 73.889C183.941 74.427 184.478 74.765 185.016 74.64C185.936 74.429 186.865 74.27 187.796 74.163L188.869 74.08C189.197 74.055 189.499 74.037 189.793 74.023V76C189.793 76.553 190.24 77 190.793 77C191.346 77 191.793 76.553 191.793 76V74.03C195.554 74.203 199.098 75.213 202.249 76.875L201.263 78.582C200.987 79.061 201.151 79.672 201.629 79.948C201.786 80.039 201.958 80.082 202.128 80.082C202.474 80.082 202.81 79.903 202.995 79.582L203.978 77.879C207.107 79.864 209.765 82.522 211.75 85.651L210.047 86.634C209.57 86.91 209.406 87.521 209.683 88C209.869 88.321 210.204 88.5 210.55 88.5C210.72 88.5 210.892 88.457 211.049 88.366L212.756 87.38C214.441 90.576 215.454 94.178 215.605 97.999H213.63C213.077 97.999 212.63 98.446 212.63 98.999C212.63 99.552 213.077 99.999 213.63 99.999H215.605C215.454 103.82 214.441 107.422 212.756 110.618L211.049 109.632C210.571 109.356 209.959 109.518 209.683 109.998C209.407 110.477 209.571 111.088 210.049 111.364L211.752 112.347C209.767 115.476 207.109 118.134 203.98 120.119L202.997 118.416C202.72 117.936 202.107 117.773 201.631 118.05C201.152 118.326 200.988 118.938 201.265 119.416L202.251 121.123C199.1 122.785 195.556 123.795 191.795 123.968V122C191.795 121.447 191.348 121 190.795 121C190.242 121 189.795 121.447 189.795 122V123.976C188.198 123.921 186.596 123.721 185.019 123.359C184.481 123.23 183.944 123.572 183.821 124.11C183.697 124.648 184.034 125.185 184.572 125.308C186.568 125.768 188.607 126 190.63 126C190.679 126 190.726 125.997 190.775 125.996C190.782 125.996 190.787 126 190.793 126C190.801 126 190.808 125.995 190.816 125.995C195.623 125.962 200.133 124.664 204.035 122.422C204.066 122.408 204.099 122.401 204.129 122.383C204.149 122.371 204.16 122.352 204.179 122.339C208.218 119.985 211.593 116.614 213.952 112.578C213.971 112.551 213.995 112.53 214.012 112.5C214.024 112.479 214.023 112.457 214.033 112.436C216.317 108.476 217.63 103.89 217.63 99C217.63 94.11 216.317 89.524 214.034 85.564ZM213.965 74.251L215.379 75.665L213.965 77.08L212.55 75.665L213.965 74.251ZM189.793 72.021V69H186.293C186.018 69 185.793 68.775 185.793 68.5C185.793 68.225 186.018 68 186.293 68H195.293C195.568 68 195.793 68.225 195.793 68.5C195.793 68.775 195.568 69 195.293 69H191.793V72.021C191.445 72.007 191.113 72 190.793 72C190.765 72 190.733 72.002 190.705 72.002C190.68 72.002 190.655 72 190.63 72C190.466 72 190.302 72.011 190.138 72.014C190.022 72.017 189.913 72.016 189.793 72.021Z" fill="black"/>
<path d="M181.793 80H176.793C176.24 80 175.793 80.447 175.793 81C175.793 81.553 176.24 82 176.793 82H181.793C182.346 82 182.793 81.553 182.793 81C182.793 80.447 182.346 80 181.793 80Z" fill="black"/>
<path d="M181.793 87H171.793C171.24 87 170.793 87.447 170.793 88C170.793 88.553 171.24 89 171.793 89H181.793C182.346 89 182.793 88.553 182.793 88C182.793 87.447 182.346 87 181.793 87Z" fill="black"/>
<path d="M181.793 94H166.793C166.24 94 165.793 94.447 165.793 95C165.793 95.553 166.24 96 166.793 96H181.793C182.346 96 182.793 95.553 182.793 95C182.793 94.447 182.346 94 181.793 94Z" fill="black"/>
<path d="M181.793 101H162.793C162.24 101 161.793 101.447 161.793 102C161.793 102.553 162.24 103 162.793 103H181.793C182.346 103 182.793 102.553 182.793 102C182.793 101.447 182.346 101 181.793 101Z" fill="black"/>
<path d="M181.793 108H168.793C168.24 108 167.793 108.447 167.793 109C167.793 109.553 168.24 110 168.793 110H181.793C182.346 110 182.793 109.553 182.793 109C182.793 108.447 182.346 108 181.793 108Z" fill="black"/>
<path d="M181.793 115H174.793C174.24 115 173.793 115.447 173.793 116C173.793 116.553 174.24 117 174.793 117H181.793C182.346 117 182.793 116.553 182.793 116C182.793 115.447 182.346 115 181.793 115Z" fill="black"/>
<g clip-path="url(#clip3)">
<path d="M15.9708 161C7.71605 161 1 168.276 1 177.259C1.03177 179.342 1.60287 181.381 2.6576 183.178C3.15599 184.028 3.58274 184.918 3.93344 185.839C4.16602 186.516 3.94278 187.266 3.37786 187.705C2.39499 188.491 1.82544 189.683 1.83171 190.942C1.82776 192.324 2.51136 193.619 3.65565 194.395C4.06703 194.674 4.31726 195.136 4.32684 195.633V202.585C4.32684 207.171 7.68444 210.903 11.8122 210.903C15.94 210.903 19.2976 207.171 19.2976 202.585C19.285 199.16 20.7745 195.901 23.373 193.67C28.2442 189.605 31.0244 183.562 30.9415 177.218C30.9415 168.276 24.2255 161 15.9708 161ZM22.2917 192.406C19.3233 194.953 17.621 198.674 17.6342 202.585C17.6342 206.254 15.0218 209.239 11.8122 209.239C8.60265 209.239 5.99025 206.254 5.99025 202.585V195.633C5.97678 194.603 5.47131 193.642 4.63041 193.047C3.91983 192.583 3.49254 191.79 3.49513 190.942C3.48942 190.176 3.83983 189.452 4.44327 188.982C5.55062 188.095 5.97343 186.603 5.49622 185.267C5.11317 184.259 4.64662 183.286 4.10144 182.356C3.18489 180.797 2.68934 179.027 2.66342 177.218C2.66342 169.193 8.63342 162.663 15.9708 162.663C23.3081 162.663 29.2781 169.193 29.2781 177.218C29.3542 183.074 26.788 188.653 22.2917 192.406Z" fill="black"/>
<path d="M15.9707 165.159C11.3356 165.159 7.38335 168.445 5.84885 173.04C5.83803 173.067 5.83055 173.094 5.82223 173.123C5.38372 174.457 5.15915 175.852 5.15686 177.257C5.15686 178.255 5.15686 181.307 7.06397 183.214C7.39032 183.529 7.90906 183.525 8.22988 183.204C8.5507 182.883 8.5552 182.364 8.24001 182.038C7.55671 181.279 7.11793 180.331 6.9808 179.318C7.11471 179.31 7.24695 179.299 7.38584 179.299C11.2034 179.298 14.3073 182.791 14.3073 187.082C14.3073 187.481 14.2882 187.855 14.2574 188.224C13.8433 188.666 13.4028 189.083 12.9383 189.472C10.5159 191.456 9.17332 194.467 9.31707 197.595C9.31707 198.055 9.68944 198.427 10.1488 198.427C10.6081 198.427 10.9805 198.055 10.9805 197.595C10.8374 194.958 11.9646 192.412 14.0129 190.744C16.9473 188.492 18.6072 184.957 18.4659 181.26C18.4659 176.054 14.5485 171.812 9.73293 171.812C9.17973 171.814 8.62816 171.872 8.08697 171.987C9.53264 168.918 12.5799 166.922 15.9707 166.822C21.0151 166.822 25.1195 171.502 25.1195 177.255C25.1849 181.787 23.2194 186.111 19.7617 189.041C19.6469 189.14 19.5196 189.246 19.3816 189.362C17.7265 190.738 14.284 193.604 13.4806 200.831C13.432 201.286 13.7607 201.695 14.2158 201.745C14.2462 201.75 14.2767 201.753 14.3073 201.754C14.731 201.753 15.0866 201.435 15.1332 201.014C15.8626 194.451 18.8426 191.972 20.4445 190.64C20.5917 190.517 20.7273 190.404 20.8487 190.299C24.6768 187.057 26.8537 182.271 26.783 177.255C26.783 170.585 21.9324 165.159 15.9707 165.159ZM9.73293 173.476C13.6311 173.476 16.8025 176.969 16.8025 181.26C16.8402 182.834 16.5277 184.397 15.8876 185.835C15.3295 181.211 11.7349 177.634 7.38751 177.634C7.19538 177.634 7.01074 177.648 6.82527 177.662C6.82527 177.502 6.82527 177.363 6.82527 177.255C6.82557 176.143 6.98465 175.036 7.29768 173.969C8.0689 173.645 8.89657 173.478 9.73293 173.476Z" fill="black"/>
<path d="M42.5854 180.129C42.6492 177.508 43.7609 175.022 45.6719 173.226C45.904 173.02 46.002 172.702 45.926 172.401C45.8501 172.1 45.6128 171.866 45.3106 171.795C45.0084 171.723 44.6917 171.826 44.4892 172.062C42.268 174.165 40.983 177.071 40.922 180.129C40.983 183.188 42.268 186.094 44.4892 188.197C44.6917 188.432 45.0084 188.535 45.3106 188.464C45.6128 188.393 45.8501 188.159 45.926 187.858C46.002 187.557 45.904 187.239 45.6719 187.032C43.7609 185.237 42.6492 182.751 42.5854 180.129Z" fill="black"/>
<path d="M48.1288 175.349C47.964 175.203 47.7477 175.128 47.5275 175.14C47.3072 175.153 47.1011 175.253 46.9544 175.418C44.4561 178.062 44.4561 182.197 46.9544 184.841C47.152 185.063 47.453 185.163 47.744 185.102C48.0351 185.042 48.2719 184.831 48.3653 184.549C48.4587 184.267 48.3946 183.957 48.197 183.735C46.2597 181.721 46.2597 178.537 48.197 176.524C48.3437 176.359 48.4189 176.143 48.4061 175.923C48.3933 175.702 48.2936 175.496 48.1288 175.349Z" fill="black"/>
<path d="M50.6887 177.909C50.3814 177.568 49.8557 177.541 49.5144 177.848C48.8154 178.399 48.4074 179.239 48.4074 180.129C48.4074 181.019 48.8154 181.86 49.5144 182.411C49.7341 182.616 50.0479 182.688 50.3348 182.596C50.6217 182.505 50.837 182.266 50.8976 181.971C50.9583 181.676 50.8548 181.372 50.6272 181.175C50.3047 180.919 50.1032 180.54 50.0708 180.129C50.1032 179.719 50.3047 179.34 50.6272 179.084C50.9684 178.777 50.9959 178.251 50.6887 177.909Z" fill="black"/>
<path d="M38.4269 180.129C38.4269 176.47 40.0662 172.933 43.1676 169.913C43.3804 169.705 43.466 169.399 43.3923 169.111C43.3185 168.822 43.0966 168.595 42.8101 168.515C42.5236 168.435 42.216 168.514 42.0032 168.722C38.5766 172.062 36.7635 176.007 36.7635 180.129C36.7635 184.252 38.5766 188.197 42.0032 191.537C42.3321 191.859 42.8594 191.853 43.1809 191.524C43.5025 191.195 43.4965 190.668 43.1676 190.346C40.0662 187.325 38.4269 183.789 38.4269 180.129Z" fill="black"/>
<path d="M34.2684 180.129C34.2684 175.56 36.1996 171.158 39.855 167.404C40.063 167.191 40.1415 166.883 40.061 166.597C39.9805 166.31 39.7532 166.088 39.4647 166.014C39.1762 165.941 38.8703 166.027 38.6623 166.24C34.7 170.315 32.6049 175.118 32.6049 180.129C32.6049 185.14 34.7 189.943 38.6623 194.019C38.9839 194.348 39.5115 194.355 39.8408 194.033C40.1702 193.711 40.1765 193.184 39.855 192.854C36.1996 189.1 34.2684 184.699 34.2684 180.129Z" fill="black"/>
</g>
<path d="M96.2832 166H79.7168C77.8879 166 76.4001 167.488 76.4001 169.317V206.683C76.4001 208.512 77.8879 210 79.7168 210H96.2833C98.1122 210 99.6 208.512 99.6 206.683V169.317C99.6 167.488 98.1122 166 96.2832 166ZM98 206.683C98 207.63 97.2296 208.4 96.2832 208.4H79.7168C78.7704 208.4 78 207.63 78 206.683V169.317C78 168.37 78.7704 167.6 79.7168 167.6H96.2833C97.2297 167.6 98.0001 168.37 98.0001 169.317V206.683H98Z" fill="black"/>
<path d="M92.4 162H83.6001C83.1583 162 82.8 162.358 82.8 162.8V166.8C82.8 167.242 83.1583 167.6 83.6001 167.6H92.4C92.8418 167.6 93.2001 167.242 93.2001 166.8V162.8C93.2 162.358 92.8418 162 92.4 162ZM91.6 166H84.4V163.6H91.6V166Z" fill="black"/>
<path d="M93.8746 183.97C93.7278 183.739 93.4734 183.6 93.2 183.6H88.4V176.4C88.4 176.025 88.1393 175.7 87.7734 175.619C87.404 175.538 87.0336 175.722 86.875 176.062L81.275 188.062C81.1594 188.309 81.1785 188.599 81.3254 188.83C81.4722 189.061 81.7266 189.2 82 189.2H86.8V196.4C86.8 196.775 87.0606 197.1 87.4266 197.181C87.4848 197.194 87.543 197.2 87.6004 197.2C87.9058 197.2 88.1914 197.024 88.325 196.738L93.925 184.738C94.0406 184.491 94.0215 184.201 93.8746 183.97ZM86.8 187.6H83.2563L86.8 180.006V187.6ZM88.4 192.794V185.2H91.9437L88.4 192.794Z" fill="black"/>
<path d="M162.8 172.4H160.4V164.4C160.4 163.04 159.36 162 158 162C156.64 162 155.6 163.04 155.6 164.4V172.4H144.4V164.4C144.4 163.04 143.36 162 142 162C140.64 162 139.6 163.04 139.6 164.4V172.4H137.2C136.72 172.4 136.4 172.72 136.4 173.2V179.28C136.4 183.28 137.92 187.12 140.64 190.08C143.04 192.8 144.4 196.32 144.4 199.92V202C144.4 204.24 146.16 206 148.4 206H149.2V209.2C149.2 209.68 149.52 210 150 210C150.48 210 150.8 209.68 150.8 209.2V206H151.6C153.84 206 155.6 204.24 155.6 202V200C155.6 196.32 156.88 192.88 159.36 190.16C162.08 187.2 163.6 183.28 163.6 179.28V173.2C163.6 172.72 163.28 172.4 162.8 172.4ZM157.2 164.4C157.2 163.92 157.52 163.6 158 163.6C158.48 163.6 158.8 163.92 158.8 164.4V172.4H157.2V164.4ZM141.2 164.4C141.2 164 141.52 163.6 142 163.6C142.48 163.6 142.8 163.92 142.8 164.4V172.4H141.2V164.4H141.2ZM162 179.2C162 182.88 160.72 186.32 158.24 189.04C155.52 192 154 195.92 154 199.92V202C154 203.36 152.96 204.4 151.6 204.4H148.4C147.04 204.4 146 203.36 146 202V200C146 196 144.48 192.08 141.76 189.12C139.36 186.4 138 182.88 138 179.28V174H140.4H143.6H156.4H159.6H162V179.2Z" fill="black"/>
<path d="M153.2 182.8H148.72L152.96 178.56C153.28 178.24 153.28 177.76 152.96 177.44C152.64 177.12 152.16 177.12 151.84 177.44L146.24 183.04C146 183.28 145.92 183.6 146.08 183.92C146.16 184.24 146.48 184.4 146.8 184.4H151.28L147.04 188.64C146.72 188.96 146.72 189.44 147.04 189.76C147.2 189.92 147.36 190 147.6 190C147.84 190 148 189.92 148.16 189.76L153.76 184.16C154 183.92 154.08 183.6 153.92 183.28C153.84 182.96 153.52 182.8 153.2 182.8Z" fill="black"/>
<g clip-path="url(#clip4)">
<path d="M28.4138 351.655C26.4828 349.448 23.1724 349.448 21.2414 351.379L11.0345 361.586L8.82758 359.379C6.89655 357.448 3.5862 357.448 1.65517 359.379H1.37931C-0.551726 361.31 -0.551726 364.621 1.37931 366.552L7.44827 372.621C8.55172 373.724 9.93103 374 11.0345 374C12.4138 374 13.5172 373.448 14.6207 372.621L28.4138 358.827C30.3448 356.896 30.3448 353.586 28.4138 351.655Z" fill="#0D0E0F"/>
</g>
<g clip-path="url(#clip5)">
<path d="M16.2667 308L23.2 301.067C24.2667 300 24.2667 298.4 23.2 297.467L22.6667 296.933C21.6 295.867 20 295.867 19.0667 296.933L12 303.733L5.06667 296.8C4 295.733 2.4 295.733 1.33333 296.8L0.8 297.333C-0.266667 298.4 -0.266667 300 0.8 300.933L7.73333 308L0.8 314.933C-0.266667 316 -0.266667 317.6 0.8 318.533L1.33333 319.2C2.4 320.267 4 320.267 4.93333 319.2L12 312.267L18.9333 319.2C20 320.267 21.6 320.267 22.5333 319.2L23.0667 318.667C24.1333 317.6 24.1333 316 23.0667 315.067L16.2667 308Z" fill="#0D0E0F"/>
</g>
<path d="M13.9359 552.845C13.8375 552.859 13.7344 552.878 13.6359 552.892C13.7344 552.873 13.8328 552.859 13.9359 552.845Z" fill="black"/>
<path d="M14.175 552.803C14.1281 552.812 14.0812 552.822 14.0297 552.827C14.0812 552.822 14.1281 552.812 14.175 552.803Z" fill="black"/>
<path d="M13.3641 552.92C13.2469 552.934 13.1297 552.944 13.0125 552.953C13.1297 552.948 13.2469 552.934 13.3641 552.92Z" fill="black"/>
<path d="M13.5984 552.892C13.5422 552.902 13.4859 552.906 13.4297 552.911C13.4813 552.906 13.5422 552.902 13.5984 552.892Z" fill="black"/>
<path d="M14.5031 552.737C14.4609 552.747 14.4188 552.756 14.3766 552.766C14.4188 552.756 14.4609 552.747 14.5031 552.737Z" fill="black"/>
<path d="M15.3141 552.536C15.2813 552.545 15.2437 552.555 15.2109 552.564C15.2437 552.555 15.2766 552.545 15.3141 552.536Z" fill="black"/>
<path d="M15.0656 552.602C15.0281 552.611 14.9906 552.62 14.9531 552.63C14.9953 552.625 15.0281 552.616 15.0656 552.602Z" fill="black"/>
<path d="M14.7469 552.686C14.7094 552.695 14.6672 552.705 14.6297 552.714C14.6672 552.7 14.7094 552.691 14.7469 552.686Z" fill="black"/>
<path d="M13.0078 552.958C12.9469 552.963 12.8812 552.967 12.8203 552.972C12.8812 552.967 12.9469 552.963 13.0078 552.958Z" fill="black"/>
<path d="M24 541C24 534.372 18.6281 529 12 529C5.37188 529 0 534.372 0 541C0 547.628 5.37188 553 12 553C12.0703 553 12.1406 553 12.2109 552.995V543.658H9.63281V540.653H12.2109V538.441C12.2109 535.877 13.7766 534.48 16.0641 534.48C17.1609 534.48 18.1031 534.559 18.375 534.597V537.278H16.8C15.5578 537.278 15.3141 537.869 15.3141 538.736V540.648H18.2906L17.9016 543.653H15.3141V552.536C20.3297 551.097 24 546.48 24 541Z" fill="black"/>
<path d="M12.7922 552.972C12.6656 552.981 12.5437 552.986 12.4172 552.991C12.5437 552.986 12.6656 552.981 12.7922 552.972Z" fill="black"/>
<path d="M12.4125 552.991C12.3469 552.991 12.2813 552.995 12.2156 552.995C12.2766 552.995 12.3422 552.995 12.4125 552.991Z" fill="black"/>
<g clip-path="url(#clip6)">
<path d="M24 242H2.06335C0.868778 242 0 242.869 0 244.063V244.389C0 245.475 0.868778 246.344 2.06335 246.344H24.1086C25.1946 246.344 26.1719 245.475 26.1719 244.281V244.063C26.0633 242.869 25.1946 242 24 242Z" fill="#0D0E0F"/>
<path d="M24 251.774H2.06335C0.868778 251.774 0 252.751 0 253.837V254.163C0 255.249 0.868778 256.226 2.06335 256.226H24.1086C25.1946 256.226 26.1719 255.357 26.1719 254.163V253.837C26.0633 252.751 25.1946 251.774 24 251.774Z" fill="#0D0E0F"/>
<path d="M24 261.548H2.06335C0.977376 261.548 0 262.416 0 263.611V263.937C0 265.023 0.868778 266 2.06335 266H24.1086C25.1946 266 26.1719 265.131 26.1719 263.937V263.611C26.0633 262.525 25.1946 261.548 24 261.548Z" fill="#0D0E0F"/>
</g>
<path d="M14.2969 595C14.2969 596.27 13.2703 597.297 12 597.297C10.7297 597.297 9.70312 596.27 9.70312 595C9.70312 593.73 10.7297 592.703 12 592.703C13.2703 592.703 14.2969 593.73 14.2969 595Z" fill="#B3B3B3"/>
<path d="M17.3719 590.936C17.2594 590.636 17.0859 590.364 16.8563 590.144C16.6359 589.914 16.3641 589.741 16.0641 589.628C15.8203 589.534 15.4547 589.422 14.7844 589.389C14.0578 589.356 13.8375 589.347 12 589.347C10.1578 589.347 9.94219 589.352 9.21563 589.389C8.54531 589.422 8.17969 589.534 7.93594 589.628C7.63594 589.741 7.36406 589.914 7.14375 590.144C6.91406 590.364 6.74062 590.636 6.62812 590.936C6.53437 591.18 6.42187 591.545 6.38906 592.216C6.35625 592.942 6.34687 593.158 6.34687 595C6.34687 596.837 6.35625 597.058 6.38906 597.784C6.42187 598.455 6.52969 598.82 6.62812 599.064C6.74062 599.364 6.91406 599.636 7.14375 599.856C7.36406 600.086 7.63594 600.259 7.93594 600.372C8.17969 600.466 8.54531 600.578 9.21563 600.611C9.94219 600.644 10.1578 600.653 12 600.653C13.8422 600.653 14.0578 600.648 14.7844 600.611C15.4547 600.578 15.8203 600.47 16.0641 600.372C16.6641 600.142 17.1422 599.664 17.3719 599.064C17.4656 598.82 17.5781 598.455 17.6109 597.784C17.6438 597.058 17.6531 596.837 17.6531 595C17.6531 593.158 17.6484 592.942 17.6109 592.216C17.5781 591.545 17.4656 591.18 17.3719 590.936ZM12 598.539C10.0453 598.539 8.46094 596.955 8.46094 595C8.46094 593.045 10.0453 591.461 12 591.461C13.9547 591.461 15.5391 593.045 15.5391 595C15.5391 596.955 13.9547 598.539 12 598.539ZM15.6797 592.15C15.225 592.15 14.8547 591.78 14.8547 591.325C14.8547 590.87 15.225 590.5 15.6797 590.5C16.1344 590.5 16.5047 590.87 16.5047 591.325C16.5047 591.78 16.1344 592.15 15.6797 592.15Z" fill="#B3B3B3"/>
<path d="M12 583C5.37188 583 0 588.372 0 595C0 601.628 5.37188 607 12 607C18.6281 607 24 601.628 24 595C24 588.372 18.6281 583 12 583ZM18.8484 597.841C18.8156 598.572 18.6984 599.073 18.5297 599.514C18.1734 600.438 17.4422 601.173 16.5141 601.53C16.0781 601.698 15.5766 601.816 14.8406 601.848C14.1047 601.881 13.8703 601.891 12 601.891C10.1297 601.891 9.89531 601.881 9.15937 601.848C8.42812 601.816 7.92656 601.698 7.48594 601.53C7.02656 601.356 6.60938 601.084 6.26719 600.733C5.91562 600.391 5.64375 599.973 5.47031 599.514C5.30156 599.078 5.18438 598.577 5.15156 597.841C5.11875 597.105 5.10938 596.87 5.10938 595C5.10938 593.13 5.11875 592.895 5.15156 592.159C5.18438 591.428 5.30156 590.927 5.47031 590.486C5.64375 590.027 5.91562 589.609 6.26719 589.267C6.60938 588.916 7.02656 588.644 7.48594 588.47C7.92656 588.302 8.42344 588.184 9.15937 588.152C9.89531 588.119 10.1297 588.109 12 588.109C13.8703 588.109 14.1047 588.119 14.8406 588.152C15.5719 588.184 16.0734 588.302 16.5141 588.47C16.9734 588.644 17.3906 588.916 17.7328 589.267C18.0844 589.609 18.3562 590.027 18.5297 590.486C18.6984 590.927 18.8156 591.423 18.8484 592.159C18.8813 592.895 18.8906 593.13 18.8906 595C18.8906 596.87 18.8813 597.105 18.8484 597.841Z" fill="#B3B3B3"/>
<path d="M38 404C24.7826 404 0 414 0 442.333C0 470.667 38 499 38 499C38 499 76 470.667 76 442.333C76 414 51.2174 404 38 404Z" fill="#E01F3D"/>
<path d="M38 448C41.3 448 44 445.3 44 442C44 438.7 41.3 436 38 436C34.7 436 32 438.7 32 442C32 445.3 34.7 448 38 448ZM38 422C36 422 33.9 422.3 32 422.9V434C36.4 430.7 42.7 431.6 46 436C49.3 440.4 48.4 446.7 44 450C39.6 453.3 33.3 452.4 30 448C28.7 446.3 28 444.2 28 442V424.7C18.4 430.2 15.2 442.4 20.7 452C26.2 461.6 38.4 464.8 48 459.3C57.6 453.8 60.8 441.6 55.3 432C51.8 425.8 45.2 422 38 422Z" fill="white"/>
<g clip-path="url(#clip7)">
<path d="M23.9481 655.596C23.8802 655.391 23.4483 655.09 22.6528 654.692C22.4372 654.567 22.1301 654.397 21.7328 654.181C21.335 653.965 20.974 653.766 20.6504 653.584C20.3261 653.402 20.0222 653.226 19.7384 653.056C19.693 653.022 19.551 652.923 19.3123 652.758C19.0735 652.593 18.872 652.471 18.707 652.391C18.5422 652.312 18.3802 652.272 18.2211 652.272C17.9939 652.272 17.7101 652.434 17.3693 652.758C17.0285 653.082 16.7159 653.434 16.432 653.815C16.148 654.195 15.8468 654.547 15.5289 654.871C15.2106 655.195 14.949 655.357 14.7447 655.357C14.6422 655.357 14.5143 655.329 14.361 655.272C14.2078 655.215 14.0913 655.167 14.0113 655.128C13.932 655.087 13.7959 655.008 13.6026 654.889C13.409 654.769 13.3013 654.704 13.2786 654.692C11.7218 653.829 10.3867 652.84 9.273 651.727C8.15962 650.613 7.17084 649.278 6.30725 647.721C6.29591 647.698 6.23042 647.59 6.11119 647.397C5.99179 647.204 5.91221 647.068 5.87245 646.988C5.83268 646.908 5.78439 646.792 5.72767 646.638C5.67095 646.485 5.64248 646.357 5.64248 646.255C5.64248 646.05 5.80445 645.789 6.12833 645.471C6.45215 645.153 6.80451 644.852 7.18505 644.568C7.56589 644.284 7.91789 643.971 8.24183 643.63C8.56565 643.289 8.72756 643.005 8.72756 642.778C8.72756 642.619 8.6878 642.457 8.60834 642.292C8.52882 642.127 8.40667 641.926 8.24183 641.687C8.07693 641.449 7.97753 641.307 7.94338 641.261C7.77311 640.977 7.59717 640.673 7.41514 640.349C7.23311 640.025 7.03442 639.664 6.81842 639.267C6.6026 638.869 6.43227 638.562 6.30713 638.347C5.90964 637.551 5.60856 637.119 5.40397 637.051C5.32438 637.017 5.20498 637 5.04605 637C4.73907 637 4.33859 637.057 3.84432 637.171C3.34987 637.284 2.96079 637.403 2.67667 637.528C2.10849 637.767 1.50628 638.46 0.869857 639.608C0.290332 640.676 0.000598907 641.733 0.000598907 642.778C0.000598907 643.085 0.0204796 643.383 0.060241 643.673C0.100002 643.963 0.171047 644.289 0.273436 644.653C0.375645 645.017 0.458093 645.287 0.520422 645.463C0.58281 645.639 0.699289 645.954 0.869797 646.409C1.04007 646.863 1.14245 647.141 1.17654 647.244C1.57422 648.357 2.0458 649.352 2.59118 650.227C3.4885 651.681 4.71304 653.184 6.26409 654.735C7.8152 656.286 9.31802 657.511 10.7726 658.409C11.6475 658.954 12.6421 659.425 13.7556 659.823C13.8579 659.857 14.1362 659.959 14.5906 660.13C15.0451 660.301 15.3605 660.417 15.5365 660.48C15.7126 660.542 15.9828 660.625 16.346 660.727C16.7101 660.829 17.0366 660.901 17.3263 660.941C17.6162 660.98 17.9145 661 18.2212 661C19.2664 661 20.3235 660.71 21.3916 660.131C22.539 659.495 23.232 658.892 23.4706 658.324C23.5961 658.04 23.715 657.651 23.8286 657.156C23.9426 656.662 23.9992 656.261 23.9992 655.955C23.9995 655.795 23.9824 655.676 23.9481 655.596Z" fill="black"/>
</g>
<path d="M12 715C18.6281 715 24 709.628 24 703C24 696.372 18.6281 691 12 691C5.37188 691 0 696.372 0 703C0 709.628 5.37188 715 12 715ZM5.48906 702.742L17.0625 698.28C17.6016 698.088 18.0703 698.411 17.8922 699.222L15.9234 708.503C15.7781 709.159 15.3844 709.323 14.8406 709.009L11.8406 706.797L10.3922 708.189C10.2328 708.348 10.0969 708.484 9.7875 708.484L9.99844 705.433L15.5625 700.413C15.8062 700.202 15.5063 700.08 15.1875 700.291L8.31562 704.617L5.35312 703.694C4.71094 703.487 4.69688 703.052 5.48906 702.742Z" fill="#B3B3B3"/>
<path d="M12 745C5.37423 745 0 750.374 0 757C0 763.626 5.37423 769 12 769C18.6258 769 24 763.626 24 757C24 750.374 18.6258 745 12 745ZM18.0859 758.301C18.6503 758.84 19.2393 759.356 19.7301 759.969C19.9509 760.239 20.1718 760.509 20.319 760.828C20.5399 761.27 20.3436 761.761 19.9509 761.785H17.4969C16.8589 761.834 16.3681 761.589 15.9264 761.147C15.5828 760.804 15.2638 760.436 14.9448 760.067C14.8221 759.92 14.6748 759.773 14.5031 759.675C14.1595 759.454 13.865 759.528 13.6933 759.871C13.4969 760.239 13.4479 760.632 13.4233 761.025C13.3988 761.613 13.227 761.761 12.638 761.785C11.3865 761.834 10.2086 761.663 9.12883 761.025C8.17178 760.46 7.41104 759.699 6.77301 758.816C5.49693 757.098 4.53988 755.209 3.65644 753.27C3.46012 752.828 3.60736 752.607 4.09816 752.583C4.90798 752.558 5.69325 752.558 6.50307 752.583C6.82209 752.583 7.04294 752.779 7.16564 753.074C7.60736 754.129 8.1227 755.16 8.78528 756.092C8.95705 756.337 9.15337 756.583 9.39877 756.779C9.69325 756.975 9.88957 756.902 10.0368 756.583C10.1104 756.387 10.1595 756.166 10.184 755.945C10.2577 755.209 10.2577 754.472 10.135 753.736C10.0613 753.245 9.81595 752.951 9.34969 752.853C9.10429 752.804 9.15337 752.73 9.25153 752.583C9.44785 752.362 9.64417 752.215 10.0123 752.215H12.7853C13.227 752.313 13.3252 752.485 13.3742 752.926V756.018C13.3742 756.19 13.4479 756.706 13.7669 756.804C14.0123 756.877 14.184 756.681 14.3313 756.534C14.9939 755.822 15.4601 754.988 15.9018 754.129C16.0982 753.736 16.2454 753.344 16.4172 752.951C16.5399 752.656 16.7117 752.509 17.0552 752.509H19.7301C19.8037 752.509 19.8773 752.509 19.9755 752.534C20.4172 752.607 20.5399 752.804 20.4172 753.245C20.1963 753.933 19.7791 754.521 19.362 755.086C18.9202 755.699 18.4294 756.288 17.9877 756.926C17.546 757.515 17.5706 757.81 18.0859 758.301Z" fill="#B3B3B3"/>
<defs>
<clipPath id="clip0">
<rect width="24" height="24" fill="white" transform="translate(88 4)"/>
</clipPath>
<clipPath id="clip1">
<rect width="24" height="24" fill="white" transform="translate(130 4)"/>
</clipPath>
<clipPath id="clip2">
<rect width="52.026" height="52.026" fill="white" transform="translate(86 70)"/>
</clipPath>
<clipPath id="clip3">
<rect width="50" height="49.9025" fill="white" transform="translate(1 161)"/>
</clipPath>
<clipPath id="clip4">
<rect width="30.069" height="24" fill="white" transform="translate(0 350)"/>
</clipPath>
<clipPath id="clip5">
<rect width="24" height="24" fill="white" transform="translate(0 296)"/>
</clipPath>
<clipPath id="clip6">
<rect width="26.0633" height="24" fill="white" transform="translate(0 242)"/>
</clipPath>
<clipPath id="clip7">
<rect width="24" height="24" fill="white" transform="translate(0 637)"/>
</clipPath>
</defs>
</svg>
