<?xml version="1.0" encoding="utf-8"?><svg xmlns="http://www.w3.org/2000/svg" xmlns:xlink="http://www.w3.org/1999/xlink"><symbol viewBox="0 0 24 24" id="fb" xmlns="http://www.w3.org/2000/svg"><path d="M13.936 23.845c-.098.014-.202.033-.3.047.098-.018.197-.033.3-.047zm.239-.042c-.047.01-.094.019-.145.023.051-.004.098-.014.145-.023zm-.811.117zm.234-.028c-.056.01-.112.014-.168.019.051-.005.112-.01.168-.019zm.905-.154l-.126.028c.042-.01.084-.02.126-.028zm.811-.202l-.103.028c.033-.01.066-.019.103-.028zm-.248.066l-.113.028a.443.443 0 00.113-.028zm-.319.084l-.117.028a.537.537 0 01.117-.028zm-1.739.272l-.188.014.188-.014zM24 12c0-6.628-5.372-12-12-12S0 5.372 0 12s5.372 12 12 12c.07 0 .14 0 .21-.005v-9.337H9.634v-3.005h2.578V9.441c0-2.564 1.566-3.961 3.853-3.961 1.097 0 2.04.08 2.311.117v2.681H16.8c-1.242 0-1.486.59-1.486 1.458v1.912h2.977l-.39 3.005h-2.587v8.883C20.33 22.096 24 17.48 24 12zM12.792 23.972zm-.38.018c-.065 0-.13.005-.196.005.06 0 .126 0 .197-.004z"/></symbol><symbol viewBox="0 0 24 24" id="in" xmlns="http://www.w3.org/2000/svg"><path d="M14.297 12A2.295 2.295 0 0112 14.297 2.295 2.295 0 019.703 12 2.295 2.295 0 0112 9.703 2.295 2.295 0 0114.297 12z"/><path d="M17.372 7.936a2.13 2.13 0 00-.516-.792 2.13 2.13 0 00-.792-.516c-.244-.094-.61-.206-1.28-.239-.726-.033-.947-.042-2.784-.042-1.842 0-2.058.005-2.784.042-.67.033-1.036.145-1.28.24-.3.112-.572.285-.792.515-.23.22-.403.492-.516.792-.094.244-.206.61-.239 1.28-.033.726-.042.942-.042 2.784 0 1.838.01 2.058.042 2.784.033.67.14 1.036.24 1.28.112.3.285.572.515.792.22.23.492.403.792.516.244.094.61.206 1.28.239.726.033.942.042 2.784.042 1.842 0 2.058-.005 2.784-.042.67-.033 1.036-.14 1.28-.24a2.273 2.273 0 001.308-1.307c.094-.244.206-.61.239-1.28.033-.726.042-.947.042-2.784 0-1.842-.005-2.058-.042-2.784-.033-.67-.145-1.036-.24-1.28zM12 15.539a3.539 3.539 0 110-7.078 3.539 3.539 0 010 7.078zm3.68-6.389a.826.826 0 010-1.65.826.826 0 010 1.65z"/><path d="M12 0C5.372 0 0 5.372 0 12s5.372 12 12 12 12-5.372 12-12S18.628 0 12 0zm6.848 14.84c-.032.732-.15 1.233-.318 1.674a3.514 3.514 0 01-2.016 2.016c-.436.168-.937.286-1.673.318-.736.033-.97.043-2.841.043-1.87 0-2.105-.01-2.84-.043-.732-.032-1.233-.15-1.674-.318a3.355 3.355 0 01-1.219-.797 3.355 3.355 0 01-.797-1.219c-.168-.436-.286-.937-.318-1.673-.033-.736-.043-.97-.043-2.841 0-1.87.01-2.105.043-2.84.032-.732.15-1.233.318-1.674.174-.46.446-.877.797-1.219.342-.351.76-.623 1.219-.797.44-.168.937-.286 1.673-.318.736-.033.97-.043 2.841-.043 1.87 0 2.105.01 2.84.043.732.032 1.233.15 1.674.318.46.174.877.446 1.219.797.351.342.623.76.797 1.219.168.44.286.937.318 1.673.033.736.043.97.043 2.841 0 1.87-.01 2.105-.043 2.84z"/></symbol><symbol viewBox="0 0 24 24" id="tv" xmlns="http://www.w3.org/2000/svg"><path d="M12 24c6.628 0 12-5.372 12-12S18.628 0 12 0 0 5.372 0 12s5.372 12 12 12zM5.49 11.742L17.061 7.28c.54-.192 1.008.13.83.942l-1.969 9.281c-.145.656-.539.82-1.082.506l-3-2.212-1.449 1.392c-.16.16-.295.295-.604.295l.21-3.051 5.565-5.02c.243-.211-.057-.333-.376-.122l-6.871 4.326-2.963-.923c-.642-.207-.656-.642.136-.952z"/></symbol><symbol viewBox="0 0 24 24" id="vk" xmlns="http://www.w3.org/2000/svg"><path d="M12 0C5.374 0 0 5.374 0 12s5.374 12 12 12 12-5.374 12-12S18.626 0 12 0zm6.086 13.3c.564.54 1.153 1.056 1.644 1.67.22.27.442.54.589.858.22.442.025.933-.368.957h-2.454c-.638.05-1.129-.196-1.57-.638a20.431 20.431 0 01-.982-1.08 1.694 1.694 0 00-.442-.392c-.344-.221-.638-.147-.81.196-.196.368-.245.76-.27 1.153-.024.59-.196.737-.785.761-1.252.05-2.43-.122-3.51-.76-.956-.565-1.717-1.326-2.355-2.209-1.276-1.718-2.233-3.607-3.117-5.546-.196-.442-.049-.663.442-.687a39.29 39.29 0 012.405 0c.32 0 .54.196.663.49.441 1.056.957 2.086 1.62 3.019.171.245.367.49.613.687.294.197.49.123.638-.196.073-.197.122-.417.147-.638a8.322 8.322 0 00-.049-2.209c-.074-.49-.319-.785-.785-.883-.246-.05-.197-.123-.098-.27.196-.221.392-.368.76-.368h2.773c.442.098.54.27.59.711v3.092c0 .172.073.688.392.786.245.073.417-.123.564-.27.663-.712 1.13-1.546 1.57-2.405.197-.393.344-.785.516-1.178.123-.295.295-.442.638-.442h2.675a.92.92 0 01.245.025c.442.073.565.27.442.711-.22.688-.638 1.276-1.055 1.84-.442.614-.933 1.203-1.374 1.841-.442.59-.417.884.098 1.375z"/></symbol></svg>